{"accessors" : [{"bufferView" : 0, "byteOffset" : 0, "componentType" : 5123, "count" : 23151, "type" : "SCALAR", "max" : [23150], "min" : [0]}, {"bufferView" : 1, "byteOffset" : 0, "componentType" : 5126, "count" : 23151, "type" : "VEC3", "max" : [812.0484008789062, 779.9976806640625, 20.244543075561523], "min" : [189.7613983154297, 282.918701171875, -20.244543075561523], "name" : "POSITION"}, {"bufferView" : 1, "byteOffset" : 12, "componentType" : 5126, "count" : 23151, "type" : "VEC3", "max" : [0.765787661075592, 0.6838515400886536, 1.0000044107437134], "min" : [-0.8287865519523621, -0.6696950197219849, -1.0000044107437134], "name" : "NORMAL"}, {"bufferView" : 1, "byteOffset" : 24, "componentType" : 5126, "count" : 23151, "type" : "VEC2", "max" : [1, 1], "min" : [0, 0], "name" : "TEXCOORD_0"}], "asset" : {"generator" : "Aspose.3D 24.9.1", "version" : "2.0"}, "buffers" : [{"uri" : "data:application/octet-stream;base64,", "byteLength" : 787144}], "bufferViews" : [{"buffer" : 0, "byteOffset" : 0, "byteLength" : 46304, "target" : 34963}, {"buffer" : 0, "byteOffset" : 46308, "byteLength" : 740832, "byteStride" : 32, "target" : 34962}], "images" : [{"uri" : "data:image/jpeg;base64,"}], "materials" : [{"name" : "Layer 1 Front Inflation Material", "pbrMetallicRoughness" : {"baseColorFactor" : [1, 1, 1, 1], "baseColorTexture" : {"index" : 0, "texCoord" : 0}, "metallicFactor" : 1, "roughnessFactor" : 1}, "emissiveFactor" : [0.0313725508749485, 0.0313725508749485, 0.0313725508749485], "alphaMode" : "BLEND", "doubleSided" : false}], "meshes" : [{"primitives" : [{"attributes" : {"POSITION" : 1, "NORMAL" : 2, "TEXCOORD_0" : 3}, "indices" : 0, "material" : 0, "mode" : 4}], "name" : "Layer 1"}], "nodes" : [{"matrix" : [0.014084335416555405, 3.1542145734420046E-05, 5.82889151701238E-05, 0, -5.7991521316580474E-05, -0.00013171619502827525, 0.01408375333994627, 0, 3.208560519851744E-05, -0.014083839021623135, -0.0001315848930971697, 0, 15.729730606079102, 21.055389404296875, -269.6792297363281, 0.9999999403953552], "mesh" : 0, "name" : "Layer 1"}], "samplers" : [{"magFilter" : 9729, "minFilter" : 9729, "wrapS" : 10497, "wrapT" : 10497}], "scene" : 0, "scenes" : [{"nodes" : [0]}], "textures" : [{"sampler" : 0, "source" : 0, "name" : "texture"}]}