{
	"asset":{
		"generator":"Khronos glTF Blender I/O v4.1.63",
		"version":"2.0"
	},
	"extensionsUsed":[
		"KHR_materials_specular",
		"KHR_materials_sheen",
		"KHR_materials_ior"
	],
	"scene":0,
	"scenes":[
		{
			"name":"Scene",
			"nodes":[
				0
			]
		}
	],
	"nodes":[
		{
			"mesh":0,
			"name":"logo",
			"rotation":[
				0.7039327621459961,
				0,
				0,
				0.7102667093276978
			],
			"translation":[
				-22.7712459564209,
				0.0180511474609375,
				21.022043228149414
			]
		}
	],
	"materials":[
		{
			"doubleSided":true,
			"extensions":{
				"KHR_materials_specular":{
					"specularColorFactor":[
						2.0999999046325684,
						2.0999999046325684,
						2.0999999046325684
					]
				},
				"KHR_materials_sheen":{
					"sheenColorFactor":[
						1.0,
						1.0,
						1.0
					],
					"sheenRoughnessFactor":0.5
				},
				"KHR_materials_ior":{
					"ior":5.5
				}
			},
			"name":"Layer 1 Front Inflation Material",
			"pbrMetallicRoughness":{
				"baseColorTexture":{
					"index":0
				},
				"metallicFactor":0.6000000238418579,
				"roughnessFactor":0.11999999731779099
			}
		},
		{
			"doubleSided":true,
			"extensions":{
				"KHR_materials_specular":{
					"specularColorFactor":[
						2.0999999046325684,
						2.0999999046325684,
						2.0999999046325684
					]
				},
				"KHR_materials_sheen":{
					"sheenColorFactor":[
						1.0,
						1.0,
						1.0
					],
					"sheenRoughnessFactor":0.5
				},
				"KHR_materials_ior":{
					"ior":5.5
				}
			},
			"name":"Layer 1 Back Inflation Material",
			"pbrMetallicRoughness":{
				"baseColorTexture":{
					"index":1
				},
				"metallicFactor":0.6000000238418579,
				"roughnessFactor":0.11999999731779099
			}
		}
	],
	"meshes":[
		{
			"name":"logo",
			"primitives":[
				{
					"attributes":{
						"POSITION":0,
						"NORMAL":1,
						"TEXCOORD_0":2
					},
					"indices":3,
					"material":0
				},
				{
					"attributes":{
						"POSITION":4,
						"NORMAL":5,
						"TEXCOORD_0":6
					},
					"indices":7,
					"material":1
				}
			]
		}
	],
	"textures":[
		{
			"sampler":0,
			"source":0
		},
		{
			"sampler":0,
			"source":1
		}
	],
	"images":[
		{
			"mimeType":"image/png",
			"name":"Capsule - Diffuse",
			"uri":"Capsule%20-%20Diffuse.png"
		},
		{
			"mimeType":"image/png",
			"name":"Capsule - Diffuse 2",
			"uri":"Capsule%20-%20Diffuse%202.png"
		}
	],
	"accessors":[
		{
			"bufferView":0,
			"componentType":5126,
			"count":4076,
			"max":[
				27.1328125,
				-20.70561981201172,
				0
			],
			"min":[
				18.37469482421875,
				-21.03492546081543,
				-6.997498035430908
			],
			"type":"VEC3"
		},
		{
			"bufferView":1,
			"componentType":5126,
			"count":4076,
			"type":"VEC3"
		},
		{
			"bufferView":2,
			"componentType":5126,
			"count":4076,
			"type":"VEC2"
		},
		{
			"bufferView":3,
			"componentType":5123,
			"count":11571,
			"type":"SCALAR"
		},
		{
			"bufferView":4,
			"componentType":5126,
			"count":4023,
			"max":[
				27.1328125,
				-20.967382431030273,
				0
			],
			"min":[
				18.37469482421875,
				-21.302064895629883,
				-6.997498035430908
			],
			"type":"VEC3"
		},
		{
			"bufferView":5,
			"componentType":5126,
			"count":4023,
			"type":"VEC3"
		},
		{
			"bufferView":6,
			"componentType":5126,
			"count":4023,
			"type":"VEC2"
		},
		{
			"bufferView":7,
			"componentType":5123,
			"count":11571,
			"type":"SCALAR"
		}
	],
	"bufferViews":[
		{
			"buffer":0,
			"byteLength":48912,
			"byteOffset":0,
			"target":34962
		},
		{
			"buffer":0,
			"byteLength":48912,
			"byteOffset":48912,
			"target":34962
		},
		{
			"buffer":0,
			"byteLength":32608,
			"byteOffset":97824,
			"target":34962
		},
		{
			"buffer":0,
			"byteLength":23142,
			"byteOffset":130432,
			"target":34963
		},
		{
			"buffer":0,
			"byteLength":48276,
			"byteOffset":153576,
			"target":34962
		},
		{
			"buffer":0,
			"byteLength":48276,
			"byteOffset":201852,
			"target":34962
		},
		{
			"buffer":0,
			"byteLength":32184,
			"byteOffset":250128,
			"target":34962
		},
		{
			"buffer":0,
			"byteLength":23142,
			"byteOffset":282312,
			"target":34963
		}
	],
	"samplers":[
		{
			"magFilter":9729,
			"minFilter":9987
		}
	],
	"buffers":[
		{
			"byteLength":305456,
			"uri":"scene.bin"
		}
	]
}
